<?xml version="1.0" encoding="iso-8859-1"?>
<!-- Uploaded to: SVG Repo, www.svgrepo.com, Generator: SVG Repo Mixer Tools -->
<!DOCTYPE svg PUBLIC "-//W3C//DTD SVG 1.1//EN" "http://www.w3.org/Graphics/SVG/1.1/DTD/svg11.dtd">
<svg fill="#e9c46a" height="800px" width="800px" version="1.1" id="Capa_1" xmlns="http://www.w3.org/2000/svg" xmlns:xlink="http://www.w3.org/1999/xlink" 
	 viewBox="0 0 46.065 46.065" xml:space="preserve">
<path d="M0.211,23.622C-0.467,13.542,4.36,7.075,12.28,2.761c7.779-4.238,15.703-3.212,22.535,1.9
	c9.559,7.154,15.692,20.268,7.259,32.194c-5.484,7.755-15.505,11.24-24.354,7.712c-3.372-1.345-6.503-3.403-9.552-5.426
	C2.48,35.367-0.901,30.303,0.211,23.622z M24.224,19.862c0.29,6.601,3.272,11.125,8.774,14.107c4.215,2.285,5.519,1.805,7.499-2.536
	c3.13-6.855-0.945-18.884-7.684-22.6c-2.119-1.168-4.238-0.892-5.228,1.316C26.192,13.266,25.319,16.613,24.224,19.862z"/>
</svg>